<svg width="556" height="423" viewBox="0 0 556 423" fill="none" xmlns="http://www.w3.org/2000/svg">
<path d="M278 15.5C334.486 15.5 380.5 61.7149 380.5 119C380.5 176.285 334.486 222.5 278 222.5C221.514 222.5 175.5 176.285 175.5 119C175.5 61.7149 221.514 15.5 278 15.5Z" stroke="black" stroke-width="31"/>
<path d="M3.52 350V305.008H8.704L40.384 345.84H40.448V305.008H44.224V350H39.04L7.424 309.168H7.296V350H3.52ZM61.51 350V305.008H65.286V350H61.51ZM82.5625 350V305.008H86.3385V326.64H86.4025L112.514 305.008H117.954L96.1305 322.992L118.594 350H113.794L93.3785 325.36L86.3385 331.184V350H82.5625ZM153.415 351.6C137.095 351.6 126.215 341.936 126.215 327.536C126.215 313.072 137.095 303.408 153.415 303.408C169.735 303.408 180.615 313.072 180.615 327.536C180.615 341.936 169.735 351.6 153.415 351.6ZM153.415 348.144C167.431 348.144 176.839 339.888 176.839 327.536C176.839 315.12 167.431 306.864 153.415 306.864C139.335 306.864 129.991 315.12 129.991 327.536C129.991 339.888 139.335 348.144 153.415 348.144ZM196.73 350V305.008H216.89C232.954 305.008 241.85 313.072 241.85 327.536C241.85 342 232.954 350 216.89 350H196.73ZM200.506 346.544H216.89C230.522 346.544 238.074 339.76 238.074 327.536C238.074 315.248 230.522 308.464 216.89 308.464H200.506V346.544ZM257.97 350V305.008H294.834V308.464H261.682V324.976H292.274V328.368H261.682V346.544H295.474V350H257.97ZM356.755 350V308.464H338.067V305.008H379.219V308.464H360.531V350H356.755ZM393.502 350V305.008H430.366V308.464H397.214V324.976H427.806V328.368H397.214V346.544H431.006V350H393.502ZM470.529 351.6C454.209 351.6 443.905 342.256 443.905 327.536C443.905 312.816 453.441 303.408 468.737 303.408C479.553 303.408 488.257 309.616 491.009 319.28L487.489 320.304C485.313 312.112 477.953 306.864 468.801 306.864C455.809 306.864 447.681 314.928 447.681 327.536C447.681 340.144 456.577 348.144 470.529 348.144C481.409 348.144 489.665 342 491.841 332.272L495.425 333.296C492.865 344.496 483.201 351.6 470.529 351.6ZM510.982 350V305.008H514.758V324.784H547.846V305.008H551.622V350H547.846V328.24H514.758V350H510.982Z" fill="black"/>
<path d="M240.28 412.92C240.2 413.053 240.227 413.12 240.36 413.12H253.32C253.587 413.12 253.72 413.253 253.72 413.52V414.6C253.72 414.867 253.587 415 253.32 415H237.92C237.653 415 237.52 414.867 237.52 414.6V413.48C237.52 413.293 237.573 413.133 237.68 413C238.827 411.587 239.853 410.293 240.76 409.12C241.667 407.947 242.48 406.907 243.2 406L246.84 401.36C249.347 398.107 250.6 395.533 250.6 393.64C250.6 392.12 250.08 390.893 249.04 389.96C248.027 389.027 246.693 388.56 245.04 388.56C243.387 388.56 242.053 389.027 241.04 389.96C240.053 390.893 239.573 392.12 239.6 393.64V394.92C239.6 395.187 239.467 395.32 239.2 395.32H237.88C237.613 395.32 237.48 395.187 237.48 394.92V393.4C237.507 391.4 238.213 389.787 239.6 388.56C241.013 387.307 242.827 386.68 245.04 386.68C246.587 386.68 247.933 386.973 249.08 387.56C250.253 388.147 251.16 388.973 251.8 390.04C252.44 391.08 252.76 392.267 252.76 393.6C252.76 395.893 251.48 398.707 248.92 402.04C247.08 404.44 244.467 407.733 241.08 411.92L240.28 412.92ZM267.411 415.4C264.958 415.4 262.984 414.693 261.491 413.28C260.024 411.84 259.291 409.933 259.291 407.56V394.44C259.291 392.067 260.024 390.173 261.491 388.76C262.984 387.347 264.958 386.64 267.411 386.64C269.891 386.64 271.878 387.36 273.371 388.8C274.891 390.213 275.651 392.093 275.651 394.44V407.56C275.651 409.933 274.891 411.84 273.371 413.28C271.878 414.693 269.891 415.4 267.411 415.4ZM267.411 413.48C269.278 413.48 270.758 412.96 271.851 411.92C272.971 410.853 273.531 409.453 273.531 407.72V394.32C273.531 392.587 272.971 391.187 271.851 390.12C270.758 389.053 269.278 388.52 267.411 388.52C265.598 388.52 264.144 389.053 263.051 390.12C261.958 391.187 261.411 392.587 261.411 394.32V407.72C261.411 409.453 261.958 410.853 263.051 411.92C264.144 412.96 265.598 413.48 267.411 413.48ZM284.03 412.92C283.95 413.053 283.977 413.12 284.11 413.12H297.07C297.337 413.12 297.47 413.253 297.47 413.52V414.6C297.47 414.867 297.337 415 297.07 415H281.67C281.403 415 281.27 414.867 281.27 414.6V413.48C281.27 413.293 281.323 413.133 281.43 413C282.577 411.587 283.603 410.293 284.51 409.12C285.417 407.947 286.23 406.907 286.95 406L290.59 401.36C293.097 398.107 294.35 395.533 294.35 393.64C294.35 392.12 293.83 390.893 292.79 389.96C291.777 389.027 290.443 388.56 288.79 388.56C287.137 388.56 285.803 389.027 284.79 389.96C283.803 390.893 283.323 392.12 283.35 393.64V394.92C283.35 395.187 283.217 395.32 282.95 395.32H281.63C281.363 395.32 281.23 395.187 281.23 394.92V393.4C281.257 391.4 281.963 389.787 283.35 388.56C284.763 387.307 286.577 386.68 288.79 386.68C290.337 386.68 291.683 386.973 292.83 387.56C294.003 388.147 294.91 388.973 295.55 390.04C296.19 391.08 296.51 392.267 296.51 393.6C296.51 395.893 295.23 398.707 292.67 402.04C290.83 404.44 288.217 407.733 284.83 411.92L284.03 412.92ZM317.801 402.88C317.988 403.973 318.081 405.16 318.081 406.44C318.081 407.773 317.988 408.853 317.801 409.68C317.374 411.413 316.494 412.787 315.161 413.8C313.854 414.813 312.268 415.32 310.401 415.32C308.588 415.32 307.028 414.84 305.721 413.88C304.441 412.92 303.574 411.64 303.121 410.04C302.934 409.427 302.828 408.88 302.801 408.4C302.801 408.133 302.934 408 303.201 408H304.561C304.828 408 304.961 408.133 304.961 408.4L305.121 409.24C305.414 410.52 306.014 411.533 306.921 412.28C307.854 413.027 309.014 413.4 310.401 413.4C311.814 413.4 312.988 413 313.921 412.2C314.881 411.4 315.494 410.307 315.761 408.92C315.894 408.387 315.961 407.56 315.961 406.44C315.961 405.533 315.894 404.613 315.761 403.68C315.574 402.347 315.001 401.32 314.041 400.6C313.081 399.88 311.881 399.52 310.441 399.52C309.134 399.52 307.988 399.813 307.001 400.4C306.041 400.96 305.401 401.733 305.081 402.72C305.001 402.96 304.854 403.08 304.641 403.08H303.201C302.934 403.08 302.801 402.947 302.801 402.68V387.4C302.801 387.133 302.934 387 303.201 387H316.521C316.788 387 316.921 387.133 316.921 387.4V388.48C316.921 388.747 316.788 388.88 316.521 388.88H305.081C304.974 388.88 304.921 388.933 304.921 389.04L304.881 399.76C304.881 399.813 304.894 399.853 304.921 399.88C304.974 399.88 305.028 399.853 305.081 399.8C305.694 399.133 306.494 398.613 307.481 398.24C308.468 397.84 309.521 397.64 310.641 397.64C312.481 397.64 314.054 398.093 315.361 399C316.668 399.907 317.481 401.2 317.801 402.88Z" fill="black"/>
</svg>
