<svg xmlns="http://www.w3.org/2000/svg" version="1.1" xmlns:xlink="http://www.w3.org/1999/xlink" width="1000" height="1000"><style>
    #light-icon {
      display: inline;
    }
    #dark-icon {
      display: none;
    }

    @media (prefers-color-scheme: dark) {
      #light-icon {
        display: none;
      }
      #dark-icon {
        display: inline;
      }
    }
  </style><g id="light-icon"><svg xmlns="http://www.w3.org/2000/svg" version="1.1" xmlns:xlink="http://www.w3.org/1999/xlink" width="1000" height="1000"><g><g transform="matrix(4.201680672268908,0,0,4.201680672268908,4.201680672268878,0)"><svg xmlns="http://www.w3.org/2000/svg" version="1.1" xmlns:xlink="http://www.w3.org/1999/xlink" width="236" height="238"><svg width="236" height="238" viewBox="0 0 236 238" fill="none" xmlns="http://www.w3.org/2000/svg">
<path d="M118 15.5C174.486 15.5 220.5 61.7149 220.5 119C220.5 176.285 174.486 222.5 118 222.5C61.5139 222.5 15.5 176.285 15.5 119C15.5 61.7149 61.5139 15.5 118 15.5Z" stroke="black" stroke-width="31"></path>
</svg></svg></g></g></svg></g><g id="dark-icon"><svg xmlns="http://www.w3.org/2000/svg" version="1.1" xmlns:xlink="http://www.w3.org/1999/xlink" width="1000" height="1000"><g><g transform="matrix(4.201680672268908,0,0,4.201680672268908,4.201680672268878,0)"><svg xmlns="http://www.w3.org/2000/svg" version="1.1" xmlns:xlink="http://www.w3.org/1999/xlink" width="236" height="238"><svg width="236" height="238" viewBox="0 0 236 238" fill="none" xmlns="http://www.w3.org/2000/svg">
<path d="M118 15.5C174.486 15.5 220.5 61.7149 220.5 119C220.5 176.285 174.486 222.5 118 222.5C61.5139 222.5 15.5 176.285 15.5 119C15.5 61.7149 61.5139 15.5 118 15.5Z" stroke="white" stroke-width="31"></path>
</svg></svg></g></g></svg></g></svg>